<svg id="visual" viewBox="0 0 900 600" width="900" height="600" xmlns="http://www.w3.org/2000/svg" xmlns:xlink="http://www.w3.org/1999/xlink" version="1.1"><rect x="0" y="0" width="900" height="600" fill="#191414"></rect><defs><linearGradient id="grad1_0" x1="33.3%" y1="100%" x2="100%" y2="0%"><stop offset="20%" stop-color="#191414" stop-opacity="1"></stop><stop offset="80%" stop-color="#191414" stop-opacity="1"></stop></linearGradient></defs><defs><linearGradient id="grad2_0" x1="0%" y1="100%" x2="66.7%" y2="0%"><stop offset="20%" stop-color="#191414" stop-opacity="1"></stop><stop offset="80%" stop-color="#191414" stop-opacity="1"></stop></linearGradient></defs><g transform="translate(900, 600)"><path d="M-459.7 0C-452 -47.4 -444.3 -94.9 -426.1 -138.4C-407.9 -182 -379.2 -221.6 -346.3 -251.6C-313.3 -281.5 -276.2 -301.7 -243.3 -334.9C-210.5 -368.1 -181.9 -414.3 -142.1 -437.2C-102.2 -460.2 -51.1 -459.9 0 -459.7L0 0Z" fill="#1db954"></path></g><g transform="translate(0, 0)"><path d="M459.7 0C461.5 52.1 463.2 104.2 437.2 142.1C411.2 179.9 357.4 203.6 322.8 234.5C288.2 265.5 272.6 303.6 245.7 338.2C218.7 372.7 180.4 403.6 137.5 423.2C94.7 442.9 47.3 451.3 0 459.7L0 0Z" fill="#1db954"></path></g></svg>