<svg id="visual" viewBox="0 0 900 600" width="900" height="600" xmlns="http://www.w3.org/2000/svg" xmlns:xlink="http://www.w3.org/1999/xlink" version="1.1"><rect x="0" y="0" width="900" height="600" fill="#191414"></rect><defs><linearGradient id="grad1_0" x1="33.3%" y1="100%" x2="100%" y2="0%"><stop offset="20%" stop-color="#191414" stop-opacity="1"></stop><stop offset="80%" stop-color="#191414" stop-opacity="1"></stop></linearGradient></defs><defs><linearGradient id="grad2_0" x1="0%" y1="100%" x2="66.7%" y2="0%"><stop offset="20%" stop-color="#191414" stop-opacity="1"></stop><stop offset="80%" stop-color="#191414" stop-opacity="1"></stop></linearGradient></defs><g transform="translate(900, 600)"><path d="M-486.7 0C-482.6 -66.6 -478.5 -133.3 -449.7 -186.3C-420.9 -239.3 -367.5 -278.6 -320.3 -320.3C-273.1 -362 -232.2 -406.1 -179.9 -434.2C-127.5 -462.4 -63.8 -474.6 0 -486.7L0 0Z" fill="#1db954"></path></g><g transform="translate(0, 0)"><path d="M486.7 0C453.5 51.5 420.3 103 402.8 166.8C385.3 230.7 383.5 306.9 344.2 344.2C304.9 381.5 228.2 380 164.6 397.3C100.9 414.6 50.5 450.7 0 486.7L0 0Z" fill="#1db954"></path></g></svg>