<svg id="visual" viewBox="0 0 900 600" width="900" height="600" xmlns="http://www.w3.org/2000/svg" xmlns:xlink="http://www.w3.org/1999/xlink" version="1.1"><rect x="0" y="0" width="900" height="600" fill="#191414"></rect><defs><linearGradient id="grad1_0" x1="33.3%" y1="100%" x2="100%" y2="0%"><stop offset="20%" stop-color="#191414" stop-opacity="1"></stop><stop offset="80%" stop-color="#191414" stop-opacity="1"></stop></linearGradient></defs><defs><linearGradient id="grad2_0" x1="0%" y1="100%" x2="66.7%" y2="0%"><stop offset="20%" stop-color="#191414" stop-opacity="1"></stop><stop offset="80%" stop-color="#191414" stop-opacity="1"></stop></linearGradient></defs><g transform="translate(900, 600)"><path d="M-486.7 0C-448.4 -49 -410.1 -98.1 -393.6 -163C-377.1 -228 -382.4 -308.9 -344.2 -344.2C-306 -379.5 -224.2 -369.1 -159.6 -385.3C-95 -401.4 -47.5 -444.1 0 -486.7L0 0Z" fill="#1db954"></path></g><g transform="translate(0, 0)"><path d="M486.7 0C488.5 72.7 490.3 145.5 449.7 186.3C409.1 227.1 326.2 236 280 280C233.8 324 224.2 403.2 183.7 443.5C143.1 483.8 71.6 485.3 0 486.7L0 0Z" fill="#1db954"></path></g></svg>