<svg id="visual" viewBox="0 0 900 600" width="900" height="600" xmlns="http://www.w3.org/2000/svg" xmlns:xlink="http://www.w3.org/1999/xlink" version="1.1"><rect x="0" y="0" width="900" height="600" fill="#191414"></rect><defs><linearGradient id="grad1_0" x1="33.3%" y1="100%" x2="100%" y2="0%"><stop offset="20%" stop-color="#191414" stop-opacity="1"></stop><stop offset="80%" stop-color="#191414" stop-opacity="1"></stop></linearGradient></defs><defs><linearGradient id="grad2_0" x1="0%" y1="100%" x2="66.7%" y2="0%"><stop offset="20%" stop-color="#191414" stop-opacity="1"></stop><stop offset="80%" stop-color="#191414" stop-opacity="1"></stop></linearGradient></defs><g transform="translate(900, 600)"><path d="M-486.7 0C-467.2 -59.3 -447.6 -118.6 -425 -176C-402.4 -233.5 -376.7 -289.2 -337.3 -337.3C-297.9 -385.4 -244.8 -426 -186.3 -449.7C-127.8 -473.4 -63.9 -480.1 0 -486.7L0 0Z" fill="#1db954"></path></g><g transform="translate(0, 0)"><path d="M486.7 0C463.6 61.7 440.4 123.5 405.6 168C370.8 212.5 324.5 239.8 289.9 289.9C255.4 340.1 232.6 413.1 186.3 449.7C139.9 486.3 70 486.5 0 486.7L0 0Z" fill="#1db954"></path></g></svg>