<svg id="visual" viewBox="0 0 900 600" width="900" height="600" xmlns="http://www.w3.org/2000/svg" xmlns:xlink="http://www.w3.org/1999/xlink" version="1.1"><rect x="0" y="0" width="900" height="600" fill="#191414"></rect><defs><linearGradient id="grad1_0" x1="33.3%" y1="100%" x2="100%" y2="0%"><stop offset="20%" stop-color="#191414" stop-opacity="1"></stop><stop offset="80%" stop-color="#191414" stop-opacity="1"></stop></linearGradient></defs><defs><linearGradient id="grad2_0" x1="0%" y1="100%" x2="66.7%" y2="0%"><stop offset="20%" stop-color="#191414" stop-opacity="1"></stop><stop offset="80%" stop-color="#191414" stop-opacity="1"></stop></linearGradient></defs><g transform="translate(900, 600)"><path d="M-405.6 0C-400.6 -44.9 -395.6 -89.7 -370.9 -120.5C-346.3 -151.3 -302 -168 -280.7 -204C-259.5 -239.9 -261.4 -295.1 -238.4 -328.2C-215.5 -361.2 -167.8 -372.2 -123.9 -381.4C-80 -390.6 -40 -398.1 0 -405.6L0 0Z" fill="#1db954"></path></g><g transform="translate(0, 0)"><path d="M405.6 0C385.4 38.6 365.1 77.3 346.2 112.5C327.3 147.7 309.7 179.4 289.6 210.4C269.6 241.4 247.1 271.6 220.4 303.4C193.7 335.1 162.8 368.5 125.3 385.8C87.9 403.1 44 404.3 0 405.6L0 0Z" fill="#1db954"></path></g></svg>